# xmcd CD database file
# 
# Track frame offsets:
# 	150
# 	14007
# 	21400
# 	35172
# 	45405
# 	59530
# 	66645
# 	75075
# 	86697
# 	98885
# 	112675
# 	125877
# 	144535
# 	158232
# 	167965
# 	181440
# 	194122
# 	209537
# 	225850
# 	240342
# 	249210
# 	259302
# 	266987
# 	280780
# 	294565
# 	306390
# 	326610
# 	333697
# 
# Disc length: 4619 seconds
# 
# Submitted via: Nero 5.5.10.20
# 
# Revision: 0
# Processed by: cddbd v1.4PL0 Copyright (c) Steve Scherf et al.
#
DISCID=aa12091c
DTITLE=Plavci - Chvala pisni - Country Our Way
DYEAR=1900
DGENRE=
TTITLE0=Chvala pisni
TTITLE1=Jako ty
TTITLE2=Laska konci
TTITLE3=Zarlivost
TTITLE4=Kouzelnik
TTITLE5=Rybareni
TTITLE6=Neplac, mala
TTITLE7=Najdi ton
TTITLE8=Jestli se chces stat mou zenou
TTITLE9=Romance sestnacteho leta
TTITLE10=Tak ci tak
TTITLE11=Chvile preletava
TTITLE12=Kvety dej
TTITLE13=Green, Green
TTITLE14=Nose for Trouble
TTITLE15=Home Again
TTITLE16=Cottonfields
TTITLE17=Memories of Home
TTITLE18=Duby
TTITLE19=Hitchin'  Every Ride I Can
TTITLE20=Sloop John B.
TTITLE21=Blue Moon of Kentucky
TTITLE22=Sink the Bismarck
TTITLE23=Green Leaves of Summer
TTITLE24=Zeneni, zeneni
TTITLE25=Take My Hammer
TTITLE26=I'm from South, I'm from Ge-o-orgia
TTITLE27=Po rece chci plout
EXTD=
EXTT0=
EXTT1=
EXTT2=
EXTT3=
EXTT4=
EXTT5=
EXTT6=
EXTT7=
EXTT8=
EXTT9=
EXTT10=
EXTT11=
EXTT12=
EXTT13=
EXTT14=
EXTT15=
EXTT16=
EXTT17=
EXTT18=
EXTT19=
EXTT20=
EXTT21=
EXTT22=
EXTT23=
EXTT24=
EXTT25=
EXTT26=
EXTT27=
PLAYORDER=
